<?xml version="1.0" encoding="utf-8"?>
<!-- Generator: Adobe Illustrator 20.1.0, SVG Export Plug-In . SVG Version: 6.00 Build 0)  -->
<svg version="1.1" id="Layer_1" xmlns="http://www.w3.org/2000/svg" xmlns:xlink="http://www.w3.org/1999/xlink" x="0px" y="0px"
	 viewBox="0 0 643.8 643.8" style="enable-background:new 0 0 643.8 643.8;" xml:space="preserve">
<style type="text/css">
	.st0{fill:#FDD726;}
</style>
<g>
	<rect x="56.8" y="56.8" width="411.4" height="411.4"/>
	<path d="M458.2,66.8v391.4H66.8V66.8H458.2 M478.2,46.8H46.8v431.4h431.4V46.8L478.2,46.8z"/>
</g>
<g>
	<rect x="167" y="166.4" class="st0" width="311.2" height="311.9"/>
</g>
<g>
	<g>
		<path d="M285.5,411.8c-12.5-0.8-19-3.2-22.3-5.3c-2.9-1.8-6.8-5.4-6.8-15.3c0-0.6,0-2.1,0.4-5.5l3.1-29.4l0.2-3.2v-0.4
			c0-8.2-3.1-15-8.8-19.6c6.4,1.4,11.4,3.4,14.5,6c1.1,0.9,4.3,3.5,4.3,12.2c0,0.1,0,1-0.4,4.5l-3,30.1c-1,8.6,2.3,15.8,9,19.7
			c2.8,1.6,6,2.7,9.9,3.4V411.8z M251,311.6c7.5-5.9,9.1-13.9,9.1-19.7v-0.4l-0.2-3.2l-3.1-29.2c-0.3-3.8-0.4-5.4-0.4-6
			c0-9.9,3.9-13.4,6.8-15.2c3.4-2.1,9.9-4.4,22.3-5.3v2.8c-3.9,0.7-7.2,1.8-10,3.3c-3.9,2.2-10.3,7.8-8.9,19.9l3,30
			c0.1,0.6,0.2,1.8,0.2,4.1c0,7.8-2.6,10.9-4.6,12.6C261.9,308.3,257.2,310.3,251,311.6z"/>
		<path d="M295.5,222.5c-17.2,0-29.7,2.3-37.5,7c-7.7,4.7-11.6,12.6-11.6,23.7c0,1.4,0.1,3.7,0.4,6.9l3.1,29.1l0.2,2.6
			c0,11.5-9.4,17.3-28.3,17.3v26.1c9,0,15.9,1.3,20.9,4c5,2.6,7.4,7.1,7.4,13.3l-0.2,2.6l-3.1,29.3c-0.3,3-0.4,5.2-0.4,6.5
			c0,11.1,3.8,19.1,11.5,23.8c7.7,4.8,20.2,7.1,37.6,7.1v-22.4c-6.7,0-11.6-1-14.9-2.9c-3.3-1.9-4.6-5.2-4.1-10l3.1-30.1
			c0.3-2.7,0.4-4.5,0.4-5.5c0-9-2.6-15.6-7.9-20c-5.3-4.3-13.3-7.3-24-9c10.2-1.5,18-4.5,23.5-9.1c5.5-4.5,8.2-11.3,8.2-20.3
			c0-2.2-0.1-3.9-0.2-5.1l-3.1-30.1c-0.5-4.9,0.8-8.2,4-10.1c3.2-1.8,8.2-2.8,15-2.8V222.5L295.5,222.5z"/>
	</g>
	<g>
		<path d="M359.7,409c3.9-0.7,7.2-1.8,10-3.3c3.9-2.2,10.3-7.8,8.9-19.9l-3.1-30.2c-0.1-0.5-0.1-1.6-0.1-4c0-7.8,2.6-10.9,4.6-12.6
			c3.3-2.7,8-4.7,14.2-6c-7.5,5.8-9.1,13.8-9.1,19.6v0.4l0.2,3.2l3.1,29.2c0.3,3.8,0.4,5.4,0.4,6c0,9.9-3.9,13.4-6.8,15.2
			c-3.4,2.1-9.9,4.4-22.3,5.3V409z M394.2,311.6c-6.4-1.4-11.4-3.4-14.5-5.9c-1.1-0.9-4.3-3.5-4.3-12.2c0-2.7,0.1-3.9,0.1-4.4
			l3.1-30.2c1-8.6-2.3-15.8-9-19.7c-2.8-1.6-6-2.7-9.9-3.4v-2.9c12.5,0.8,19,3.2,22.3,5.3c2.9,1.8,6.8,5.4,6.8,15.3
			c0,0.6,0,2.1-0.4,5.5l-3.1,29.4l-0.2,3.2v0.4C385.2,297.7,386.7,305.7,394.2,311.6z"/>
		<path d="M349.7,222.5v22.4c6.7,0,11.6,1,14.9,2.9c3.3,1.9,4.6,5.2,4.1,10l-3.1,30.1c-0.1,1.2-0.2,3.1-0.2,5.5c0,9,2.6,15.6,7.9,20
			c5.3,4.3,13.3,7.3,24,9c-10.3,1.5-18.2,4.5-23.7,9.1c-5.5,4.6-8.2,11.3-8.2,20.3c0,2.2,0.1,3.9,0.2,5.1l3.1,30.1
			c0.5,4.9-0.8,8.2-4,10.1c-3.2,1.8-8.2,2.8-15,2.8v22.4c17.2,0,29.7-2.3,37.5-7c7.7-4.7,11.6-12.6,11.6-23.7c0-1.4-0.1-3.7-0.4-6.9
			l-3.1-29.1l-0.2-2.6c0-11.5,9.4-17.3,28.3-17.3v-26.1c-18.9,0-28.3-5.8-28.3-17.3l0.2-2.6l3.1-29.3c0.3-3,0.4-5.2,0.4-6.5
			c0-11.1-3.8-19.1-11.5-23.8C379.6,224.9,367.1,222.5,349.7,222.5L349.7,222.5z"/>
	</g>
</g>
<g>
	<path d="M577,185.5V577H185.5V185.5H577 M597,165.5H165.5V597H597V165.5L597,165.5z"/>
</g>
<g>
	<path d="M458.2,66.8v391.4H66.8V66.8H458.2 M478.2,46.8H46.8v431.4h431.4V46.8L478.2,46.8z"/>
</g>
</svg>
